<?xml version="1.0" standalone="no"?>
<svg xmlns:xlink="http://www.w3.org/1999/xlink" xmlns="http://www.w3.org/2000/svg" class="vtree" width="1200" height="800"><style>
.vtree-node text { font: 14px sans-serif; }
.vtree-link { fill: none; stroke: #888; stroke-width: 2px; }
.vtree-table { stroke-width: 2px; stroke: steelblue; }
path.vtree-table { fill: white; }
g.vtree-node rect { fill: white; stroke: black; stroke-width: 1px; }
g.vtree-node rect.number-text { fill: #d8f0ed; }
g.vtree-node rect.string-text { fill: #e7f0db; }
g.vtree-node rect.boolean-text { fill: #e1d8f0; }
g.vtree-node rect.null-text { fill: #888; }
</style><g class="vtree-root" transform="translate(131.3629704156072,120.13781693354974)scale(0.5946035575013608)"><g class="vtree-node" transform="translate(480,196)"><g class="vtree-node" transform="translate(-8,0)"><path class="vtree-link" d="M8,4C8,43.5 8,43.5 8,83"/><g class="vtree-node" transform="translate(-38,58)"><path class="vtree-link" d="M46,25C46,75 873,75 873,125"/><path class="vtree-link" d="M46,25C46,75 657,75 657,125"/><path class="vtree-link" d="M46,25C46,75 314,75 314,125"/><path class="vtree-link" d="M46,25C46,75 -152,75 -152,125"/><path class="vtree-link" d="M46,25C46,75 -525,75 -525,125"/><path class="vtree-link" d="M46,25C46,75 -778,75 -778,125"/><g class="vtree-node" transform="translate(-884,79)"><path class="vtree-link" d="M106,46C106,96 106,96 106,146"/><g class="vtree-node" transform="translate(72,121)"><path class="vtree-link" d="M34,25C34,75 35,75 35,125"/><g class="vtree-node" transform="translate(-55,79)"><g transform="translate(5,21)"><g transform="translate(0,0)"><rect class="string-text" x="0" y="0" width="76" height="25"/><text x="4" y="21">email</text></g><g transform="translate(76,0)"><rect class="string-text" x="0" y="0" width="93" height="25"/><text x="4" y="21">florin@test.ro</text></g><g transform="translate(0,25)"><rect class="string-text" x="0" y="0" width="76" height="25"/><text x="4" y="21">permission</text></g><g transform="translate(76,25)"><rect class="string-text" x="0" y="0" width="93" height="25"/><text x="4" y="21">read</text></g></g><g><text x="89" y="17" text-anchor="middle">-MRtKLohrDckNSORJZOY</text></g></g><g transform="translate(26,21)"><g transform="translate(0,0)"><rect class="string-text" x="0" y="0" width="8" height="8"/><text x="4" y="4"> </text></g><g transform="translate(8,0)"><rect class="string-text" x="0" y="0" width="8" height="8"/><text x="4" y="4"> </text></g></g><g><text x="34" y="17" text-anchor="middle">members</text></g></g><g transform="translate(0,21)"><g transform="translate(0,0)"><rect class="string-text" x="0" y="0" width="82" height="25"/><text x="4" y="21">name</text></g><g transform="translate(82,0)"><rect class="string-text" x="0" y="0" width="130" height="25"/><text x="4" y="21">UiPath</text></g><g transform="translate(0,25)"><rect class="string-text" x="0" y="0" width="82" height="25"/><text x="4" y="21">ownerEmail</text></g><g transform="translate(82,25)"><rect class="string-text" x="0" y="0" width="130" height="25"/><text x="4" y="21">stefansava@test.ro</text></g></g><g><text x="106" y="17" text-anchor="middle">-MQnBRJXZ8eErdRT42As</text></g></g><g class="vtree-node" transform="translate(-631,79)"><path class="vtree-link" d="M106,46C106,96 106,96 106,146"/><g class="vtree-node" transform="translate(72,121)"><path class="vtree-link" d="M34,25C34,75 34,75 34,125"/><g class="vtree-node" transform="translate(-103,79)"><g transform="translate(0,21)"><g transform="translate(0,0)"><rect class="string-text" x="0" y="0" width="76" height="25"/><text x="4" y="21">email</text></g><g transform="translate(76,0)"><rect class="string-text" x="0" y="0" width="197" height="25"/><text x="4" y="21">andrei.ungureanu@gmail.com</text></g><g transform="translate(0,25)"><rect class="string-text" x="0" y="0" width="76" height="25"/><text x="4" y="21">permission</text></g><g transform="translate(76,25)"><rect class="string-text" x="0" y="0" width="197" height="25"/><text x="4" y="21">write</text></g></g><g><text x="137" y="17" text-anchor="middle">-MQqD2fkemWYZCAIN2Si</text></g></g><g transform="translate(26,21)"><g transform="translate(0,0)"><rect class="string-text" x="0" y="0" width="8" height="8"/><text x="4" y="4"> </text></g><g transform="translate(8,0)"><rect class="string-text" x="0" y="0" width="8" height="8"/><text x="4" y="4"> </text></g></g><g><text x="34" y="17" text-anchor="middle">members</text></g></g><g transform="translate(0,21)"><g transform="translate(0,0)"><rect class="string-text" x="0" y="0" width="82" height="25"/><text x="4" y="21">name</text></g><g transform="translate(82,0)"><rect class="string-text" x="0" y="0" width="130" height="25"/><text x="4" y="21">Elrond</text></g><g transform="translate(0,25)"><rect class="string-text" x="0" y="0" width="82" height="25"/><text x="4" y="21">ownerEmail</text></g><g transform="translate(82,25)"><rect class="string-text" x="0" y="0" width="130" height="25"/><text x="4" y="21">stefansava@test.ro</text></g></g><g><text x="106" y="17" text-anchor="middle">-MQnBTqkO9-NlUdbEXEI</text></g></g><g class="vtree-node" transform="translate(-258,79)"><path class="vtree-link" d="M106,46C106,96 106,96 106,146"/><g class="vtree-node" transform="translate(72,121)"><path class="vtree-link" d="M34,25C34,75 174,75 174,125"/><path class="vtree-link" d="M34,25C34,75 -58,75 -58,125"/><g class="vtree-node" transform="translate(-193,79)"><g transform="translate(0,21)"><g transform="translate(0,0)"><rect class="string-text" x="0" y="0" width="76" height="25"/><text x="4" y="21">email</text></g><g transform="translate(76,0)"><rect class="string-text" x="0" y="0" width="193" height="25"/><text x="4" y="21">andreiungureanu@gmail.com</text></g><g transform="translate(0,25)"><rect class="string-text" x="0" y="0" width="76" height="25"/><text x="4" y="21">permission</text></g><g transform="translate(76,25)"><rect class="string-text" x="0" y="0" width="193" height="25"/><text x="4" y="21">write</text></g></g><g><text x="135" y="17" text-anchor="middle">-MQqEWciOQNO5P0qNTXk</text></g></g><g class="vtree-node" transform="translate(86,79)"><g transform="translate(3,21)"><g transform="translate(0,0)"><rect class="string-text" x="0" y="0" width="76" height="25"/><text x="4" y="21">email</text></g><g transform="translate(76,0)"><rect class="string-text" x="0" y="0" width="93" height="25"/><text x="4" y="21">florin@test.ro</text></g><g transform="translate(0,25)"><rect class="string-text" x="0" y="0" width="76" height="25"/><text x="4" y="21">permission</text></g><g transform="translate(76,25)"><rect class="string-text" x="0" y="0" width="93" height="25"/><text x="4" y="21">read</text></g></g><g><text x="87" y="17" text-anchor="middle">-MRtKO2hKGRk8SaQ8I-H</text></g></g><g transform="translate(26,21)"><g transform="translate(0,0)"><rect class="string-text" x="0" y="0" width="8" height="8"/><text x="4" y="4"> </text></g><g transform="translate(8,0)"><rect class="string-text" x="0" y="0" width="8" height="8"/><text x="4" y="4"> </text></g></g><g><text x="34" y="17" text-anchor="middle">members</text></g></g><g transform="translate(0,21)"><g transform="translate(0,0)"><rect class="string-text" x="0" y="0" width="82" height="25"/><text x="4" y="21">name</text></g><g transform="translate(82,0)"><rect class="string-text" x="0" y="0" width="130" height="25"/><text x="4" y="21">FintechOS</text></g><g transform="translate(0,25)"><rect class="string-text" x="0" y="0" width="82" height="25"/><text x="4" y="21">ownerEmail</text></g><g transform="translate(82,25)"><rect class="string-text" x="0" y="0" width="130" height="25"/><text x="4" y="21">stefansava@test.ro</text></g></g><g><text x="106" y="17" text-anchor="middle">-MQnBWDhHefaIaRshK8B</text></g></g><g class="vtree-node" transform="translate(208,79)"><path class="vtree-link" d="M106,46C106,96 106,96 106,146"/><g class="vtree-node" transform="translate(72,121)"><path class="vtree-link" d="M34,25C34,75 174,75 174,125"/><path class="vtree-link" d="M34,25C34,75 -61,75 -61,125"/><g class="vtree-node" transform="translate(-196,79)"><g transform="translate(0,21)"><g transform="translate(0,0)"><rect class="string-text" x="0" y="0" width="76" height="25"/><text x="4" y="21">email</text></g><g transform="translate(76,0)"><rect class="string-text" x="0" y="0" width="193" height="25"/><text x="4" y="21">andreiungureanu@gmail.com</text></g><g transform="translate(0,25)"><rect class="string-text" x="0" y="0" width="76" height="25"/><text x="4" y="21">permission</text></g><g transform="translate(76,25)"><rect class="string-text" x="0" y="0" width="193" height="25"/><text x="4" y="21">write</text></g></g><g><text x="135" y="17" text-anchor="middle">-MQqEvE-_1L1H6U5yzyZ</text></g></g><g class="vtree-node" transform="translate(83,79)"><g transform="translate(6,21)"><g transform="translate(0,0)"><rect class="string-text" x="0" y="0" width="76" height="25"/><text x="4" y="21">email</text></g><g transform="translate(76,0)"><rect class="string-text" x="0" y="0" width="93" height="25"/><text x="4" y="21">florin@test.ro</text></g><g transform="translate(0,25)"><rect class="string-text" x="0" y="0" width="76" height="25"/><text x="4" y="21">permission</text></g><g transform="translate(76,25)"><rect class="string-text" x="0" y="0" width="93" height="25"/><text x="4" y="21">read</text></g></g><g><text x="91" y="17" text-anchor="middle">-MRtKPwx5YnT7vKPOpUD</text></g></g><g transform="translate(26,21)"><g transform="translate(0,0)"><rect class="string-text" x="0" y="0" width="8" height="8"/><text x="4" y="4"> </text></g><g transform="translate(8,0)"><rect class="string-text" x="0" y="0" width="8" height="8"/><text x="4" y="4"> </text></g></g><g><text x="34" y="17" text-anchor="middle">members</text></g></g><g transform="translate(0,21)"><g transform="translate(0,0)"><rect class="string-text" x="0" y="0" width="82" height="25"/><text x="4" y="21">name</text></g><g transform="translate(82,0)"><rect class="string-text" x="0" y="0" width="130" height="25"/><text x="4" y="21">Bitdefender</text></g><g transform="translate(0,25)"><rect class="string-text" x="0" y="0" width="82" height="25"/><text x="4" y="21">ownerEmail</text></g><g transform="translate(82,25)"><rect class="string-text" x="0" y="0" width="130" height="25"/><text x="4" y="21">stefansava@test.ro</text></g></g><g><text x="106" y="17" text-anchor="middle">-MQnBbLF7qgNmD-_An0l</text></g></g><g class="vtree-node" transform="translate(569,79)"><path class="vtree-link" d="M88,46C88,96 88,96 88,146"/><g class="vtree-node" transform="translate(54,121)"><path class="vtree-link" d="M34,25C34,75 34,75 34,125"/><g class="vtree-node" transform="translate(-69,79)"><g transform="translate(0,21)"><g transform="translate(0,0)"><rect class="string-text" x="0" y="0" width="76" height="25"/><text x="4" y="21">email</text></g><g transform="translate(76,0)"><rect class="string-text" x="0" y="0" width="130" height="25"/><text x="4" y="21">stefansava@test.ro</text></g><g transform="translate(0,25)"><rect class="string-text" x="0" y="0" width="76" height="25"/><text x="4" y="21">permission</text></g><g transform="translate(76,25)"><rect class="string-text" x="0" y="0" width="130" height="25"/><text x="4" y="21">read</text></g></g><g><text x="103" y="17" text-anchor="middle">-MRtKFq5eEZPZFHd9uS0</text></g></g><g transform="translate(26,21)"><g transform="translate(0,0)"><rect class="string-text" x="0" y="0" width="8" height="8"/><text x="4" y="4"> </text></g><g transform="translate(8,0)"><rect class="string-text" x="0" y="0" width="8" height="8"/><text x="4" y="4"> </text></g></g><g><text x="34" y="17" text-anchor="middle">members</text></g></g><g transform="translate(0,21)"><g transform="translate(0,0)"><rect class="string-text" x="0" y="0" width="82" height="25"/><text x="4" y="21">name</text></g><g transform="translate(82,0)"><rect class="string-text" x="0" y="0" width="93" height="25"/><text x="4" y="21">Adobe</text></g><g transform="translate(0,25)"><rect class="string-text" x="0" y="0" width="82" height="25"/><text x="4" y="21">ownerEmail</text></g><g transform="translate(82,25)"><rect class="string-text" x="0" y="0" width="93" height="25"/><text x="4" y="21">florin@test.ro</text></g></g><g><text x="88" y="17" text-anchor="middle">-MRtKDyxqP9mo-zYChmd</text></g></g><g class="vtree-node" transform="translate(785,79)"><path class="vtree-link" d="M88,46C88,96 88,96 88,146"/><g class="vtree-node" transform="translate(54,121)"><path class="vtree-link" d="M34,25C34,75 34,75 34,125"/><g class="vtree-node" transform="translate(-69,79)"><g transform="translate(0,21)"><g transform="translate(0,0)"><rect class="string-text" x="0" y="0" width="76" height="25"/><text x="4" y="21">email</text></g><g transform="translate(76,0)"><rect class="string-text" x="0" y="0" width="130" height="25"/><text x="4" y="21">stefansava@test.ro</text></g><g transform="translate(0,25)"><rect class="string-text" x="0" y="0" width="76" height="25"/><text x="4" y="21">permission</text></g><g transform="translate(76,25)"><rect class="string-text" x="0" y="0" width="130" height="25"/><text x="4" y="21">read</text></g></g><g><text x="103" y="17" text-anchor="middle">-MRtKZ_hsiqyNXweq3g3</text></g></g><g transform="translate(26,21)"><g transform="translate(0,0)"><rect class="string-text" x="0" y="0" width="8" height="8"/><text x="4" y="4"> </text></g><g transform="translate(8,0)"><rect class="string-text" x="0" y="0" width="8" height="8"/><text x="4" y="4"> </text></g></g><g><text x="34" y="17" text-anchor="middle">members</text></g></g><g transform="translate(0,21)"><g transform="translate(0,0)"><rect class="string-text" x="0" y="0" width="82" height="25"/><text x="4" y="21">name</text></g><g transform="translate(82,0)"><rect class="string-text" x="0" y="0" width="93" height="25"/><text x="4" y="21">Microsoft</text></g><g transform="translate(0,25)"><rect class="string-text" x="0" y="0" width="82" height="25"/><text x="4" y="21">ownerEmail</text></g><g transform="translate(82,25)"><rect class="string-text" x="0" y="0" width="93" height="25"/><text x="4" y="21">florin@test.ro</text></g></g><g><text x="88" y="17" text-anchor="middle">-MRtKTZuOZBusCCCblzK</text></g></g><g transform="translate(38,21)"><g transform="translate(0,0)"><rect class="string-text" x="0" y="0" width="8" height="8"/><text x="4" y="4"> </text></g><g transform="translate(8,0)"><rect class="string-text" x="0" y="0" width="8" height="8"/><text x="4" y="4"> </text></g></g><g><text x="46" y="17" text-anchor="middle">organizations</text></g></g><g transform="translate(0,0)"><rect class="string-text" x="0" y="0" width="8" height="8"/><text x="4" y="4"> </text></g><g transform="translate(8,0)"><rect class="string-text" x="0" y="0" width="8" height="8"/><text x="4" y="4"> </text></g></g></g></g></svg>